<?xml version="1.0" encoding="UTF-8"?>
<svg version="1.1" xmlns="http://www.w3.org/2000/svg" width="955" height="228">
<path d="M0 0 C315.15 0 630.3 0 955 0 C955 75.24 955 150.48 955 228 C639.85 228 324.7 228 0 228 C0 152.76 0 77.52 0 0 Z " fill="#000001" transform="translate(0,0)"/>
<path d="M0 0 C1.88846448 -0.00202507 3.77692819 -0.0049401 5.66539001 -0.00869751 C9.60651153 -0.01309939 13.54742788 -0.00675833 17.48852539 0.00732422 C22.51732978 0.02442657 27.54565407 0.01455459 32.57444096 -0.00339317 C36.46857768 -0.01427892 40.36260221 -0.01076297 44.25674248 -0.0030098 C46.11013281 -0.00102162 47.96353363 -0.00341794 49.8169117 -0.01044846 C65.27941499 -0.0562513 77.66935374 1.32853934 89.57421875 12.3515625 C97.69335332 21.1646402 100.78749069 31.11529229 100.72363281 42.95068359 C100.72888977 44.17192177 100.72888977 44.17192177 100.73425293 45.41783142 C100.74299241 48.08593496 100.73724767 50.75376917 100.73046875 53.421875 C100.7318179 55.29220632 100.73376051 57.1625373 100.73626709 59.03286743 C100.73920805 62.94479729 100.73495483 66.85663552 100.72558594 70.76855469 C100.71420791 75.76036081 100.720747 80.75195144 100.73273087 85.74374962 C100.73999081 89.60441686 100.73764235 93.46503383 100.73247528 97.32570267 C100.73114938 99.16513724 100.732749 101.0045765 100.73743439 102.84400558 C100.77027403 119.36204118 99.83442296 131.35085427 88.27734375 144.2109375 C80.15175848 151.85854716 68.9092239 155.70805376 57.95605469 155.6730957 C57.12268082 155.67820663 56.28930695 155.68331757 55.43067932 155.68858337 C52.68678521 155.70243625 49.9431436 155.70152537 47.19921875 155.69921875 C45.28118803 155.703109 43.36315816 155.70744434 41.44512939 155.71220398 C37.42709561 155.71965766 33.4091497 155.71938178 29.39111328 155.71411133 C24.26242102 155.70832812 19.13409123 155.7252241 14.00545883 155.748456 C10.04355799 155.76324938 6.08174321 155.76405726 2.11981964 155.76094627 C0.23013849 155.76145701 -1.65954779 155.76664786 -3.54920197 155.77675819 C-19.27255756 155.85054201 -31.01417923 154.68959783 -42.80078125 143.1875 C-54.88874038 130.06982583 -54.84408322 117.10923865 -54.80078125 100.109375 C-54.80213082 98.2371109 -54.80407378 96.36484714 -54.80657959 94.49258423 C-54.80951566 90.58421465 -54.80528128 86.67593696 -54.79589844 82.76757812 C-54.78448897 77.77339068 -54.7910825 72.7794179 -54.80304337 67.78523827 C-54.81028953 63.92465615 -54.80796166 60.06412448 -54.80278778 56.2035408 C-54.80145973 54.3624532 -54.80306921 52.52136092 -54.80774689 50.68027878 C-54.81285939 48.1036245 -54.8050367 45.52731255 -54.79394531 42.95068359 C-54.79799377 42.20034348 -54.80204224 41.45000336 -54.80621338 40.67692566 C-54.71020295 28.5599804 -49.87087074 19.17778352 -41.6953125 10.40625 C-30.08261379 -0.38746996 -14.85174791 -0.05640925 0 0 Z " fill="#465FFD" transform="translate(76.53515625,36.6015625)"/>
<path d="M0 0 C5.3100282 5.07402694 6.85974856 10.0632873 7.11328125 17.1796875 C7.12367022 20.12322884 7.08826244 23.0579188 7 26 C6.34 26 5.68 26 5 26 C4.67 27.32 4.34 28.64 4 30 C2.02 30.495 2.02 30.495 0 31 C-0.144375 31.5775 -0.28875 32.155 -0.4375 32.75 C-1 35 -1 35 -1.6875 36.9375 C-2.11269334 39.74377606 -1.19127863 41.47729232 0 44 C0.66 44 1.32 44 2 44 C2.33 44.99 2.66 45.98 3 47 C4.99665598 48.67067133 6.99651034 50.33752986 9 52 C9 52.66 9 53.32 9 54 C9.66 54 10.32 54 11 54 C11.495 56.475 11.495 56.475 12 59 C7.78248718 59.04946113 3.56512832 59.08574827 -0.65258789 59.10986328 C-2.08718812 59.119917 -3.52176789 59.13356194 -4.95629883 59.15087891 C-7.01909438 59.17515549 -9.08161885 59.18648919 -11.14453125 59.1953125 C-12.38565674 59.20578613 -13.62678223 59.21625977 -14.90551758 59.22705078 C-18 59 -18 59 -21 57 C-24 50.88888889 -24 50.88888889 -24 47 C-24.66 47 -25.32 47 -26 47 C-26.66 45.68 -27.32 44.36 -28 43 C-28.09087891 44.60681641 -28.09087891 44.60681641 -28.18359375 46.24609375 C-28.26798537 47.64324391 -28.35263406 49.04037857 -28.4375 50.4375 C-28.47681641 51.14455078 -28.51613281 51.85160156 -28.55664062 52.58007812 C-28.88671875 57.88671875 -28.88671875 57.88671875 -30 59 C-37.92 59 -45.84 59 -54 59 C-54 38.54 -54 18.08 -54 -3 C-9.21220527 -4.94729542 -9.21220527 -4.94729542 0 0 Z " fill="#F7F9F9" transform="translate(914,83)"/>
<path d="M0 0 C1.625 1.90625 1.625 1.90625 2.9140625 3.78515625 C3.92987221 5.50793931 3.92987221 5.50793931 6 6.34375 C7.38800999 9.99172498 7.2038264 13.86325425 7.25 17.71875 C7.27578125 19.00523438 7.3015625 20.29171875 7.328125 21.6171875 C6.97624322 25.61355913 6.15276766 27.97942472 4 31.34375 C2.01612292 32.37536608 0.01723344 33.37898618 -2 34.34375 C-3.337865 36.11155636 -3.337865 36.11155636 -3 38.34375 C-1.71488126 40.37506672 -0.38123963 42.37652992 1 44.34375 C1 45.33375 1 46.32375 1 47.34375 C1.66 47.34375 2.32 47.34375 3 47.34375 C3.268125 47.941875 3.53625 48.54 3.8125 49.15625 C5.71162349 52.65463537 7.20036361 54.07720454 11 55.34375 C11 56.66375 11 57.98375 11 59.34375 C1.1 59.34375 -8.8 59.34375 -19 59.34375 C-19 58.68375 -19 58.02375 -19 57.34375 C-19.66 57.34375 -20.32 57.34375 -21 57.34375 C-21.83790789 55.55421815 -22.67019396 53.76205305 -23.5 51.96875 C-23.9640625 50.97101563 -24.428125 49.97328125 -24.90625 48.9453125 C-26 46.34375 -26 46.34375 -26 44.34375 C-26.66 44.34375 -27.32 44.34375 -28 44.34375 C-28.33 49.29375 -28.66 54.24375 -29 59.34375 C-32.97921094 59.37057614 -36.95824341 59.39050393 -40.9375 59.40625 C-42.64196289 59.41881836 -42.64196289 59.41881836 -44.38085938 59.43164062 C-45.46044922 59.43486328 -46.54003906 59.43808594 -47.65234375 59.44140625 C-49.15269165 59.44926147 -49.15269165 59.44926147 -50.68334961 59.45727539 C-53 59.34375 -53 59.34375 -54 58.34375 C-54.09391296 56.44131238 -54.11743658 54.53536541 -54.11352539 52.63061523 C-54.11344986 51.4094249 -54.11337433 50.18823456 -54.11329651 48.93003845 C-54.10818911 47.58747314 -54.10297311 46.24490825 -54.09765625 44.90234375 C-54.09579199 43.53613842 -54.09436813 42.16993243 -54.09336853 40.8037262 C-54.08954394 37.20173305 -54.07971417 33.59978 -54.06866455 29.99780273 C-54.05844916 26.32471255 -54.05387064 22.65161591 -54.04882812 18.97851562 C-54.03809184 11.76690877 -54.02101614 4.555335 -54 -2.65625 C-50.1823549 -2.82051563 -46.36462395 -2.98269855 -42.546875 -3.14453125 C-41.47550293 -3.19065552 -40.40413086 -3.23677979 -39.30029297 -3.28430176 C-5.67952903 -4.70335998 -5.67952903 -4.70335998 0 0 Z " fill="#F0F2F2" transform="translate(514,82.65625)"/>
<path d="M0 0 C3.47758252 0.0045281 5.17282038 0.03064516 7.875 2.27734375 C11.8125 7.51156851 11.8125 7.51156851 11.8125 10.5625 C12.4725 10.5625 13.1325 10.5625 13.8125 10.5625 C13.8125 11.5525 13.8125 12.5425 13.8125 13.5625 C14.4725 13.5625 15.1325 13.5625 15.8125 13.5625 C16.21082031 14.61050781 16.21082031 14.61050781 16.6171875 15.6796875 C16.97039062 16.58976562 17.32359375 17.49984375 17.6875 18.4375 C18.03554688 19.34242187 18.38359375 20.24734375 18.7421875 21.1796875 C19.69780895 23.68467007 19.69780895 23.68467007 21.8125 25.5625 C21.8125 26.8825 21.8125 28.2025 21.8125 29.5625 C22.4725 29.5625 23.1325 29.5625 23.8125 29.5625 C24.4725 31.5425 25.1325 33.5225 25.8125 35.5625 C26.4725 35.5625 27.1325 35.5625 27.8125 35.5625 C28.48845315 36.97475926 29.15290059 38.39252905 29.8125 39.8125 C30.18375 40.60140625 30.555 41.3903125 30.9375 42.203125 C31.8125 44.5625 31.8125 44.5625 31.8125 48.5625 C32.4725 48.5625 33.1325 48.5625 33.8125 48.5625 C33.8125 49.5525 33.8125 50.5425 33.8125 51.5625 C34.4725 51.5625 35.1325 51.5625 35.8125 51.5625 C36.65098804 53.01787568 37.48313934 54.47690373 38.3125 55.9375 C39.00859375 57.15566406 39.00859375 57.15566406 39.71875 58.3984375 C40.8125 60.5625 40.8125 60.5625 40.8125 62.5625 C30.5825 62.5625 20.3525 62.5625 9.8125 62.5625 C9.1525 60.2525 8.4925 57.9425 7.8125 55.5625 C2.2025 55.5625 -3.4075 55.5625 -9.1875 55.5625 C-9.5175 57.8725 -9.8475 60.1825 -10.1875 62.5625 C-19.4275 62.5625 -28.6675 62.5625 -38.1875 62.5625 C-37.38947185 59.3703874 -36.44518711 56.58094907 -35.1875 53.5625 C-34.5275 53.5625 -33.8675 53.5625 -33.1875 53.5625 C-33.125625 52.9025 -33.06375 52.2425 -33 51.5625 C-32.04421801 48.0334588 -30.38928651 45.59871096 -28.3984375 42.56640625 C-26.8589002 40.01872034 -25.97443356 37.42407656 -25.1875 34.5625 C-24.1975 34.5625 -23.2075 34.5625 -22.1875 34.5625 C-22.06375 33.840625 -21.94 33.11875 -21.8125 32.375 C-21.1970069 29.60528106 -20.30305626 27.1654646 -19.1875 24.5625 C-18.5275 24.5625 -17.8675 24.5625 -17.1875 24.5625 C-16.92195313 23.71429688 -16.65640625 22.86609375 -16.3828125 21.9921875 C-15.14309534 18.43509054 -13.66267384 15.09656601 -12.0625 11.6875 C-11.52367187 10.53507812 -10.98484375 9.38265625 -10.4296875 8.1953125 C-10.01976562 7.32648438 -9.60984375 6.45765625 -9.1875 5.5625 C-8.5275 5.5625 -7.8675 5.5625 -7.1875 5.5625 C-7.043125 4.923125 -6.89875 4.28375 -6.75 3.625 C-5.70127021 -0.22034258 -3.72376078 0.23618995 0 0 Z " fill="#F6F8F8" transform="translate(291.1875,79.4375)"/>
<path d="M0 0 C0.66 1.32 1.32 2.64 2 4 C2.66 4 3.32 4 4 4 C4 4.99 4 5.98 4 7 C4.66 7 5.32 7 6 7 C6.495 9.97 6.495 9.97 7 13 C7.66 13 8.32 13 9 13 C12 18.625 12 18.625 12 22 C12.66 22 13.32 22 14 22 C18.42857143 29.28571429 18.42857143 29.28571429 19 34 C19.99 34.33 20.98 34.66 22 35 C23.38671875 37.36328125 23.38671875 37.36328125 24.6875 40.3125 C25.12449219 41.27800781 25.56148437 42.24351563 26.01171875 43.23828125 C27 46 27 46 27 50 C27.66 50 28.32 50 29 50 C29 50.99 29 51.98 29 53 C29.66 53 30.32 53 31 53 C31 53.66 31 54.32 31 55 C31.66 55 32.32 55 33 55 C33 56.98 33 58.96 33 61 C29.06754915 61.12368591 25.13585202 61.21437336 21.2019043 61.2746582 C19.20646445 61.31214374 17.21156948 61.37567535 15.21679688 61.43945312 C13.96318359 61.45556641 12.70957031 61.47167969 11.41796875 61.48828125 C10.26063232 61.51446533 9.1032959 61.54064941 7.91088867 61.56762695 C6.95029541 61.38031006 5.98970215 61.19299316 5 61 C3.34960938 58.51367188 3.34960938 58.51367188 2 56 C0.10173912 55.23283378 0.10173912 55.23283378 -2.01171875 55.29296875 C-2.76904297 55.26396484 -3.52636719 55.23496094 -4.30664062 55.20507812 C-5.09232422 55.19927734 -5.87800781 55.19347656 -6.6875 55.1875 C-7.48478516 55.16236328 -8.28207031 55.13722656 -9.10351562 55.11132812 C-11.0684802 55.05249685 -13.03429391 55.02337596 -15 55 C-15 56.65 -15 58.3 -15 60 C-17.66178221 61.3308911 -19.68739396 61.11268993 -22.6640625 61.09765625 C-23.78554688 61.09443359 -24.90703125 61.09121094 -26.0625 61.08789062 C-27.238125 61.07951172 -28.41375 61.07113281 -29.625 61.0625 C-30.80835938 61.05798828 -31.99171875 61.05347656 -33.2109375 61.04882812 C-36.14067507 61.03701467 -39.07031272 61.02054258 -42 61 C-41.74438677 58.6568787 -41.40729228 56.32156597 -41 54 C-40.01 53.505 -40.01 53.505 -39 53 C-38.09656316 51.11736119 -38.09656316 51.11736119 -37.375 48.9375 C-36.98441406 47.83728516 -36.98441406 47.83728516 -36.5859375 46.71484375 C-36.39257812 46.14894531 -36.19921875 45.58304688 -36 45 C-35.34 45 -34.68 45 -34 45 C-33.87625 44.484375 -33.7525 43.96875 -33.625 43.4375 C-32.81358372 40.27297649 -31.9054087 37.13875015 -31 34 C-30.34 34 -29.68 34 -29 34 C-28.67 32.35 -28.34 30.7 -28 29 C-27.34 29 -26.68 29 -26 29 C-25.7834375 28.1028125 -25.7834375 28.1028125 -25.5625 27.1875 C-25.1127561 25.43849596 -24.57107659 23.71322977 -24 22 C-23.34 22 -22.68 22 -22 22 C-21.67 19.69 -21.34 17.38 -21 15 C-20.01 15 -19.02 15 -18 15 C-17.67 13.02 -17.34 11.04 -17 9 C-16.34 9 -15.68 9 -15 9 C-14.7525 8.071875 -14.505 7.14375 -14.25 6.1875 C-11.46013014 -0.92666813 -6.81433367 -0.39313463 0 0 Z " fill="#F4F6F6" transform="translate(680,80)"/>
<path d="M0 0 C14.52 0 29.04 0 44 0 C44 5.94 44 11.88 44 18 C43 19 43 19 41.23413086 19.11352539 C40.48526611 19.10828857 39.73640137 19.10305176 38.96484375 19.09765625 C38.15595703 19.09443359 37.34707031 19.09121094 36.51367188 19.08789062 C35.66353516 19.07951172 34.81339844 19.07113281 33.9375 19.0625 C33.08349609 19.05798828 32.22949219 19.05347656 31.34960938 19.04882812 C29.23304337 19.03700373 27.11651315 19.01906769 25 19 C25 19.99 25 20.98 25 22 C31.93 22 38.86 22 46 22 C46 27.28 46 32.56 46 38 C38.74 38 31.48 38 24 38 C24 39.98 24 41.96 24 44 C31.26 44 38.52 44 46 44 C46.020625 46.784375 46.04125 49.56875 46.0625 52.4375 C46.071604 53.31591553 46.08070801 54.19433105 46.09008789 55.09936523 C46.09723091 57.06645974 46.05031893 59.03353621 46 61 C44.45498549 62.54501451 43.0133978 62.12719131 40.86328125 62.12939453 C39.54686646 62.13412277 39.54686646 62.13412277 38.20385742 62.13894653 C37.24970947 62.1369223 36.29556152 62.13489807 35.3125 62.1328125 C33.85324097 62.13424759 33.85324097 62.13424759 32.36450195 62.13571167 C30.303222 62.13639358 28.24193992 62.13453853 26.18066406 62.13037109 C23.01362312 62.125023 19.846724 62.13031572 16.6796875 62.13671875 C14.68229135 62.13605797 12.68489529 62.13477681 10.6875 62.1328125 C9.73335205 62.13483673 8.7792041 62.13686096 7.79614258 62.13894653 C6.91853271 62.13579437 6.04092285 62.13264221 5.13671875 62.12939453 C4.36030029 62.12859894 3.58388184 62.12780334 2.78393555 62.12698364 C1 62 1 62 0 61 C-0.09391296 59.09756238 -0.11743658 57.19161541 -0.11352539 55.28686523 C-0.11344986 54.0656749 -0.11337433 52.84448456 -0.11329651 51.58628845 C-0.10818911 50.24372314 -0.10297311 48.90115825 -0.09765625 47.55859375 C-0.09579199 46.19238842 -0.09436813 44.82618243 -0.09336853 43.4599762 C-0.08954394 39.85798305 -0.07971417 36.25603 -0.06866455 32.65405273 C-0.05844916 28.98096265 -0.05381594 25.30786592 -0.04882812 21.63476562 C-0.03862203 14.42314163 -0.01905038 7.21162785 0 0 Z " fill="#FAFCFC" transform="translate(805,80)"/>
<path d="M0 0 C14.85 0 29.7 0 45 0 C45 5.61 45 11.22 45 17 C44 18 44 18 42.05053711 18.11352539 C41.2178833 18.10828857 40.38522949 18.10305176 39.52734375 18.09765625 C38.62822266 18.09443359 37.72910156 18.09121094 36.80273438 18.08789062 C35.85720703 18.07951172 34.91167969 18.07113281 33.9375 18.0625 C32.98810547 18.05798828 32.03871094 18.05347656 31.06054688 18.04882812 C28.70696935 18.0370011 26.35351523 18.02052025 24 18 C24 19.65 24 21.3 24 23 C30.6 23 37.2 23 44 23 C44 27.95 44 32.9 44 38 C37.4 38 30.8 38 24 38 C24 39.98 24 41.96 24 44 C31.26 44 38.52 44 46 44 C46.020625 46.784375 46.04125 49.56875 46.0625 52.4375 C46.071604 53.31591553 46.08070801 54.19433105 46.09008789 55.09936523 C46.09723091 57.06645974 46.05031893 59.03353621 46 61 C45 62 45 62 43.17137146 62.12025452 C42.37417191 62.11803391 41.57697235 62.11581329 40.75561523 62.11352539 C39.84211304 62.11340454 38.92861084 62.11328369 37.98742676 62.11315918 C37.02091187 62.10804321 36.05439697 62.10292725 35.05859375 62.09765625 C34.17498169 62.09664917 33.29136963 62.09564209 32.38098145 62.09460449 C29.06647451 62.08935531 25.75198601 62.07539417 22.4375 62.0625 C15.033125 62.041875 7.62875 62.02125 0 62 C0 41.54 0 21.08 0 0 Z " fill="#F8F9F8" transform="translate(533,80)"/>
<path d="M0 0 C13.53 0 27.06 0 41 0 C41 5.94 41 11.88 41 18 C34.4 18 27.8 18 21 18 C21 19.65 21 21.3 21 23 C27.6 23 34.2 23 41 23 C41 27.95 41 32.9 41 38 C34.4 38 27.8 38 21 38 C21 39.98 21 41.96 21 44 C28.26 44 35.52 44 43 44 C43.020625 46.784375 43.04125 49.56875 43.0625 52.4375 C43.071604 53.31591553 43.08070801 54.19433105 43.09008789 55.09936523 C43.09723091 57.06645974 43.05031893 59.03353621 43 61 C42 62 42 62 40.17137146 62.12025452 C39.37417191 62.11803391 38.57697235 62.11581329 37.75561523 62.11352539 C36.85475693 62.11344986 35.95389862 62.11337433 35.02574158 62.11329651 C34.04658279 62.10813522 33.06742401 62.10297394 32.05859375 62.09765625 C31.06118668 62.0962413 30.0637796 62.09482635 29.03614807 62.09336853 C25.83656876 62.08775114 22.63705831 62.07519571 19.4375 62.0625 C17.27408955 62.05748724 15.11067801 62.05292395 12.94726562 62.04882812 C7.63148675 62.03777607 2.31574829 62.02102104 -3 62 C-3.02314652 54.47228843 -3.04092691 46.94458053 -3.05181217 39.41684151 C-3.05703593 35.92159902 -3.06412441 32.42638084 -3.07543945 28.93115234 C-3.08835974 24.91503666 -3.0932324 20.8989466 -3.09765625 16.8828125 C-3.10281754 15.62445587 -3.10797882 14.36609924 -3.11329651 13.0696106 C-3.11337204 11.90855804 -3.11344757 10.74750549 -3.11352539 9.55126953 C-3.115746 8.52534698 -3.11796661 7.49942444 -3.12025452 6.44241333 C-3 4 -3 4 -2 2 C-1.34 2 -0.68 2 0 2 C0 1.34 0 0.68 0 0 Z " fill="#FCFDFD" transform="translate(205,80)"/>
<path d="M0 0 C4.29 0 8.58 0 13 0 C13 0.66 13 1.32 13 2 C16.63 2 20.26 2 24 2 C24 7.94 24 13.88 24 20 C18.39 19.67 12.78 19.34 7 19 C10.00307037 24.20387508 10.00307037 24.20387508 15 26 C15 26.66 15 27.32 15 28 C15.86625 28.0928125 15.86625 28.0928125 16.75 28.1875 C19.94710041 29.34200848 21.1436532 31.21547979 23 34 C23 34.99 23 35.98 23 37 C24.32 37.33 25.64 37.66 27 38 C27.77439664 53.50944386 27.77439664 53.50944386 23 59 C14.48426045 65.1807787 3.64592206 65.35182995 -6.4375 64.8125 C-7.41654297 64.78091797 -8.39558594 64.74933594 -9.40429688 64.71679688 C-10.34208984 64.67232422 -11.27988281 64.62785156 -12.24609375 64.58203125 C-13.50957642 64.52366089 -13.50957642 64.52366089 -14.79858398 64.46411133 C-17.47492085 63.89987529 -18.41244736 63.21089399 -20 61 C-20.21714241 58.18872957 -20.28284276 55.6116655 -20.1875 52.8125 C-20.17396484 52.06291016 -20.16042969 51.31332031 -20.14648438 50.54101562 C-20.11118539 48.69370233 -20.05737917 46.84675934 -20 45 C-18.49759766 45.23009766 -18.49759766 45.23009766 -16.96484375 45.46484375 C-13.17269228 46.00657967 -9.38526799 46.3076488 -5.5625 46.5625 C-4.32628906 46.64628906 -3.09007812 46.73007813 -1.81640625 46.81640625 C-0.88699219 46.87699219 0.04242188 46.93757813 1 47 C0.62971769 44.56230813 0.3994274 43.33217687 -1.53125 41.7265625 C-2.1809375 41.36304688 -2.830625 40.99953125 -3.5 40.625 C-6.67594439 38.77665759 -9.76268592 36.8640116 -12.8125 34.8125 C-13.54082031 34.32394531 -14.26914062 33.83539063 -15.01953125 33.33203125 C-15.67308594 32.89246094 -16.32664062 32.45289063 -17 32 C-17.99 31.34 -18.98 30.68 -20 30 C-21.311212 26.67326785 -21.10092408 23.28501539 -21.0625 19.75 C-21.04896484 18.13351563 -21.04896484 18.13351563 -21.03515625 16.484375 C-21.02355469 15.66453125 -21.01195312 14.8446875 -21 14 C-20.34 14 -19.68 14 -19 14 C-18.896875 13.071875 -18.79375 12.14375 -18.6875 11.1875 C-17.9937139 7.97085535 -17.65754784 6.83984081 -15 5 C-14.01 5 -13.02 5 -12 5 C-12 4.34 -12 3.68 -12 3 C-9.11788698 2.03929566 -7.30149956 1.89418117 -4.3125 1.9375 C-3.10013672 1.95103516 -3.10013672 1.95103516 -1.86328125 1.96484375 C-0.94095703 1.98224609 -0.94095703 1.98224609 0 2 C0 1.34 0 0.68 0 0 Z " fill="#F8FAF9" transform="translate(358,78)"/>
<path d="M0 0 C8.91 0 17.82 0 27 0 C29.475 4.455 29.475 4.455 32 9 C36.84168231 7.11744404 36.84168231 7.11744404 39 0 C46.59 0 54.18 0 62 0 C61.67 1.32 61.34 2.64 61 4 C60.814375 5.051875 60.814375 5.051875 60.625 6.125 C60 8 60 8 57 10 C56.27617533 12.05925139 56.27617533 12.05925139 56 14 C55.34 14 54.68 14 54 14 C53.82984375 14.64066406 53.6596875 15.28132813 53.484375 15.94140625 C51.92005487 21.52469776 50.02225945 26.06364291 47 31 C46.67 31.99 46.34 32.98 46 34 C45.34 34 44.68 34 44 34 C44 43.24 44 52.48 44 62 C35.42 62 26.84 62 18 62 C17.95101563 60.09734375 17.90203125 58.1946875 17.8515625 56.234375 C17.77653073 53.73956858 17.70098308 51.24477763 17.625 48.75 C17.5940625 47.49574219 17.563125 46.24148437 17.53125 44.94921875 C17.49257813 43.74394531 17.45390625 42.53867188 17.4140625 41.296875 C17.3826416 40.18666992 17.3512207 39.07646484 17.31884766 37.93261719 C17.00756292 35.0695603 16.35031079 33.48673777 15 31 C15 30.01 15 29.02 15 28 C14.34 28 13.68 28 13 28 C13 27.34 13 26.68 13 26 C12.34 26 11.68 26 11 26 C10.9175 24.88625 10.835 23.7725 10.75 22.625 C10.42126213 18.94246056 10.42126213 18.94246056 7.9375 17.5625 C7.298125 17.376875 6.65875 17.19125 6 17 C6 16.01 6 15.02 6 14 C5.34 14 4.68 14 4 14 C3.67 11.36 3.34 8.72 3 6 C2.34 6 1.68 6 1 6 C0.67 4.02 0.34 2.04 0 0 Z " fill="#F4F6F6" transform="translate(391,80)"/>
<path d="M0 0 C18.81 0 37.62 0 57 0 C57 6.93 57 13.86 57 21 C51.39 21 45.78 21 40 21 C40 34.2 40 47.4 40 61 C32.41 61 24.82 61 17 61 C16.67 47.8 16.34 34.6 16 21 C10.72 20.67 5.44 20.34 0 20 C0 13.4 0 6.8 0 0 Z " fill="#F0F2F2" transform="translate(586,80)"/>
<path d="M0 0 C8.25 0 16.5 0 25 0 C25 14.19 25 28.38 25 43 C31.6 43 38.2 43 45 43 C45 49.27 45 55.54 45 62 C30.15 62 15.3 62 0 62 C0 41.54 0 21.08 0 0 Z " fill="#EAEDED" transform="translate(754,80)"/>
<path d="M0 0 C8.25 0 16.5 0 25 0 C25.02255473 7.9361421 25.04091723 15.87225946 25.05181217 23.80842495 C25.05704008 27.49314498 25.06413605 31.17784203 25.07543945 34.86254883 C25.08627162 38.41570831 25.09227753 41.96884563 25.09487724 45.52202034 C25.0967309 46.88045666 25.10035038 48.23889171 25.10573006 49.59731865 C25.11294475 51.49382223 25.11340809 53.39034793 25.11352539 55.28686523 C25.115746 56.36830307 25.11796661 57.44974091 25.12025452 58.56394958 C25 61 25 61 24 62 C22.30441274 62.09932153 20.60474253 62.13080007 18.90625 62.1328125 C17.87628906 62.13410156 16.84632813 62.13539063 15.78515625 62.13671875 C14.15900391 62.13091797 14.15900391 62.13091797 12.5 62.125 C11.41589844 62.12886719 10.33179688 62.13273437 9.21484375 62.13671875 C8.18488281 62.13542969 7.15492188 62.13414062 6.09375 62.1328125 C5.14177734 62.13168457 4.18980469 62.13055664 3.20898438 62.12939453 C1 62 1 62 0 61 C-0.09391296 59.09756238 -0.11743658 57.19161541 -0.11352539 55.28686523 C-0.11344986 54.0656749 -0.11337433 52.84448456 -0.11329651 51.58628845 C-0.10818911 50.24372314 -0.10297311 48.90115825 -0.09765625 47.55859375 C-0.09579199 46.19238842 -0.09436813 44.82618243 -0.09336853 43.4599762 C-0.08954394 39.85798305 -0.07971417 36.25603 -0.06866455 32.65405273 C-0.05844916 28.98096255 -0.05387064 25.30786591 -0.04882812 21.63476562 C-0.03809184 14.42315666 -0.02049553 7.21158905 0 0 Z " fill="#FDFEFD" transform="translate(721,80)"/>
<path d="M0 0 C3.81086988 1.17790524 5.0636038 1.90861246 7.4375 5.0625 C7.83746021 7.7703927 7.99528434 10.07418273 7.97094727 12.78100586 C7.97956284 13.55384415 7.98817841 14.32668243 7.99705505 15.12294006 C8.01973654 17.67474978 8.01297229 20.22546316 8.00390625 22.77734375 C8.00914118 24.55327175 8.01541718 26.32919697 8.02268982 28.1051178 C8.03309824 31.82664068 8.02852678 35.5477813 8.01391602 39.26928711 C7.99673396 44.03563082 8.02021335 48.80076841 8.05540562 53.5669775 C8.07738042 57.23450186 8.07593788 60.9017377 8.0676403 64.56930733 C8.0668207 66.32636398 8.07368597 68.0834418 8.08841133 69.84043694 C8.10585811 72.29924196 8.091316 74.75588122 8.06860352 77.21459961 C8.08029572 77.93839813 8.09198792 78.66219666 8.10403442 79.40792847 C8.03172361 83.26077414 7.5279897 84.94722222 5.12071228 88.01393127 C2.4375 90.0625 2.4375 90.0625 -1.125 90.6875 C-4.5625 90.0625 -4.5625 90.0625 -6.7440033 88.01293945 C-8.99724592 84.35714183 -9.13358967 81.39640272 -9.09594727 77.23046875 C-9.10456284 76.45748444 -9.11317841 75.68450012 -9.12205505 74.88809204 C-9.14469441 72.34171742 -9.13798084 69.79644508 -9.12890625 67.25 C-9.13414247 65.47550124 -9.14041895 63.70100526 -9.14768982 61.92651367 C-9.15809001 58.21096684 -9.15353771 54.49580309 -9.13891602 50.78027344 C-9.12172164 46.02180527 -9.14523289 41.26454386 -9.18040562 36.50621033 C-9.20237801 32.84297708 -9.2009387 29.18003271 -9.1926403 25.51675415 C-9.19182083 23.76248856 -9.19868361 22.00820176 -9.21341133 20.2539978 C-9.23085684 17.80008989 -9.21631786 15.3483523 -9.19360352 12.89453125 C-9.20529572 12.17230377 -9.21698792 11.45007629 -9.22903442 10.70596313 C-9.15650062 6.84952021 -8.63813836 5.15997357 -6.24571228 2.0769043 C-3.5625 0.0625 -3.5625 0.0625 0 0 Z " fill="#FCFCFE" transform="translate(71.5625,68.9375)"/>
<path d="M0 0 C2.68222046 1.61769104 2.68222046 1.61769104 5 4 C5.63491821 7.02891541 5.63491821 7.02891541 5.64697266 10.61694336 C5.66011505 11.60063652 5.66011505 11.60063652 5.67352295 12.60420227 C5.69548572 14.76676085 5.6809772 16.92726529 5.6640625 19.08984375 C5.66743203 20.59672944 5.67228579 22.10361249 5.67855835 23.61048889 C5.68592566 26.76720072 5.67523152 29.92320455 5.65185547 33.07983398 C5.62339073 37.11989542 5.63975566 41.15829443 5.66971779 45.19829464 C5.68781642 48.30998682 5.6820209 51.4212872 5.66907883 54.53299141 C5.66575055 56.02209229 5.66981161 57.5112291 5.68147659 59.00028801 C5.69422678 61.08569878 5.6747574 63.16844881 5.64697266 65.25366211 C5.64299469 66.43850693 5.63901672 67.62335175 5.63491821 68.84410095 C4.81296052 72.92969094 3.21322678 74.42970382 0 77 C-3 77.625 -3 77.625 -6 77 C-9.21495196 74.42928705 -10.81419846 72.93343057 -11.62818909 68.84410095 C-11.62915085 67.65925613 -11.63011261 66.47441132 -11.63110352 65.25366211 C-11.63825882 64.59611435 -11.64541412 63.93856659 -11.65278625 63.26109314 C-11.66962244 61.09912508 -11.65030707 58.93924565 -11.62890625 56.77734375 C-11.62973534 55.26949391 -11.63219624 53.76164415 -11.63621521 52.25379944 C-11.63906955 49.09885343 -11.62440726 45.94461881 -11.59692383 42.78979492 C-11.56281114 38.74871453 -11.56887174 34.7089033 -11.5875864 30.6677618 C-11.59816066 27.55613143 -11.58921545 24.4447958 -11.57420158 21.33319283 C-11.56902433 19.84327635 -11.56949607 18.35332903 -11.57574654 16.86341667 C-11.58120558 14.7805866 -11.56080792 12.69956698 -11.53344727 10.61694336 C-11.52724869 9.43289413 -11.52105011 8.24884491 -11.5146637 7.02891541 C-10.38145506 0.35971934 -6.22077539 -0.87309128 0 0 Z " fill="#C4CDFE" transform="translate(135,82)"/>
<path d="M0 0 C3.96516468 0.89013901 6.65434677 2.43708204 9.0625 5.6875 C9.94217398 9.1336866 9.88050439 12.48587346 9.82421875 16.02734375 C9.82758743 17.02705704 9.83095612 18.02677032 9.83442688 19.05677795 C9.83412838 21.16738029 9.81891167 23.27802622 9.78979492 25.38842773 C9.75016947 28.61121671 9.76907602 31.829879 9.79492188 35.05273438 C9.78736112 37.10678674 9.776406 39.16082998 9.76171875 41.21484375 C9.7721949 42.65415504 9.7721949 42.65415504 9.78288269 44.12254333 C9.69018435 48.53747713 9.51264128 51.73684443 6.73754883 55.29516602 C4.0625 57.6875 4.0625 57.6875 0.5625 58.4375 C-3.19341284 57.63266153 -4.56503945 56.62506188 -6.90301514 53.62768555 C-8.94347717 49.80078088 -8.64753386 45.71348439 -8.6015625 41.46875 C-8.60634613 40.49264771 -8.61112976 39.51654541 -8.61605835 38.51086426 C-8.61945094 36.45335268 -8.61029355 34.39578674 -8.58935547 32.33837891 C-8.56258109 29.19701438 -8.58912545 26.05922273 -8.62109375 22.91796875 C-8.61778954 20.91405465 -8.61138307 18.91014276 -8.6015625 16.90625 C-8.61168365 15.97171997 -8.62180481 15.03718994 -8.63223267 14.07434082 C-8.55378865 9.6888942 -8.35320782 6.60936622 -5.57958984 3.09179688 C-2.9375 0.6875 -2.9375 0.6875 0 0 Z " fill="#E4E8FE" transform="translate(100.9375,101.3125)"/>
<path d="M0 0 C8.25 0 16.5 0 25 0 C25.02255473 7.9361421 25.04091723 15.87225946 25.05181217 23.80842495 C25.05704008 27.49314498 25.06413605 31.17784203 25.07543945 34.86254883 C25.08627162 38.41570831 25.09227753 41.96884563 25.09487724 45.52202034 C25.0967309 46.88045666 25.10035038 48.23889171 25.10573006 49.59731865 C25.11294475 51.49382223 25.11340809 53.39034793 25.11352539 55.28686523 C25.115746 56.36830307 25.11796661 57.44974091 25.12025452 58.56394958 C25 61 25 61 24 62 C22.30441274 62.09932153 20.60474253 62.13080007 18.90625 62.1328125 C17.87628906 62.13410156 16.84632813 62.13539063 15.78515625 62.13671875 C14.15900391 62.13091797 14.15900391 62.13091797 12.5 62.125 C11.41589844 62.12886719 10.33179688 62.13273437 9.21484375 62.13671875 C8.18488281 62.13542969 7.15492188 62.13414062 6.09375 62.1328125 C5.14177734 62.13168457 4.18980469 62.13055664 3.20898438 62.12939453 C1 62 1 62 0 61 C-0.09391296 59.09756238 -0.11743658 57.19161541 -0.11352539 55.28686523 C-0.11344986 54.0656749 -0.11337433 52.84448456 -0.11329651 51.58628845 C-0.10818911 50.24372314 -0.10297311 48.90115825 -0.09765625 47.55859375 C-0.09579199 46.19238842 -0.09436813 44.82618243 -0.09336853 43.4599762 C-0.08954394 39.85798305 -0.07971417 36.25603 -0.06866455 32.65405273 C-0.05844916 28.98096255 -0.05387064 25.30786591 -0.04882812 21.63476562 C-0.03809184 14.42315666 -0.02049553 7.21158905 0 0 Z M3 2 C3 20.81 3 39.62 3 59 C9.27 59 15.54 59 22 59 C22 40.19 22 21.38 22 2 C15.73 2 9.46 2 3 2 Z " fill="#D2D8DB" transform="translate(721,80)"/>
<path d="M0 0 C13.53 0 27.06 0 41 0 C41 5.94 41 11.88 41 18 C34.4 18 27.8 18 21 18 C21 17.67 21 17.34 21 17 C26.94 17 32.88 17 39 17 C39 12.38 39 7.76 39 3 C25.8 3.33 12.6 3.66 -1 4 C-1 22.48 -1 40.96 -1 60 C12.86 60 26.72 60 41 60 C41 55.05 41 50.1 41 45 C34.07 45 27.14 45 20 45 C20 42.69 20 40.38 20 38 C20.33 38 20.66 38 21 38 C21 39.98 21 41.96 21 44 C28.26 44 35.52 44 43 44 C43.020625 46.784375 43.04125 49.56875 43.0625 52.4375 C43.071604 53.31591553 43.08070801 54.19433105 43.09008789 55.09936523 C43.09723091 57.06645974 43.05031893 59.03353621 43 61 C42 62 42 62 40.17137146 62.12025452 C39.37417191 62.11803391 38.57697235 62.11581329 37.75561523 62.11352539 C36.85475693 62.11344986 35.95389862 62.11337433 35.02574158 62.11329651 C34.04658279 62.10813522 33.06742401 62.10297394 32.05859375 62.09765625 C31.06118668 62.0962413 30.0637796 62.09482635 29.03614807 62.09336853 C25.83656876 62.08775114 22.63705831 62.07519571 19.4375 62.0625 C17.27408955 62.05748724 15.11067801 62.05292395 12.94726562 62.04882812 C7.63148675 62.03777607 2.31574829 62.02102104 -3 62 C-3.02314652 54.47228843 -3.04092691 46.94458053 -3.05181217 39.41684151 C-3.05703593 35.92159902 -3.06412441 32.42638084 -3.07543945 28.93115234 C-3.08835974 24.91503666 -3.0932324 20.8989466 -3.09765625 16.8828125 C-3.10281754 15.62445587 -3.10797882 14.36609924 -3.11329651 13.0696106 C-3.11337204 11.90855804 -3.11344757 10.74750549 -3.11352539 9.55126953 C-3.115746 8.52534698 -3.11796661 7.49942444 -3.12025452 6.44241333 C-3 4 -3 4 -2 2 C-1.34 2 -0.68 2 0 2 C0 1.34 0 0.68 0 0 Z " fill="#BDC4C8" transform="translate(205,80)"/>
<path d="M0 0 C14.52 0 29.04 0 44 0 C44 5.94 44 11.88 44 18 C43 19 43 19 41.23413086 19.11352539 C40.48526611 19.10828857 39.73640137 19.10305176 38.96484375 19.09765625 C38.15595703 19.09443359 37.34707031 19.09121094 36.51367188 19.08789062 C35.66353516 19.07951172 34.81339844 19.07113281 33.9375 19.0625 C33.08349609 19.05798828 32.22949219 19.05347656 31.34960938 19.04882812 C29.23304337 19.03700373 27.11651315 19.01906769 25 19 C25 19.99 25 20.98 25 22 C31.93 22 38.86 22 46 22 C46 27.28 46 32.56 46 38 C38.74 38 31.48 38 24 38 C24 39.98 24 41.96 24 44 C31.26 44 38.52 44 46 44 C46.020625 46.784375 46.04125 49.56875 46.0625 52.4375 C46.071604 53.31591553 46.08070801 54.19433105 46.09008789 55.09936523 C46.09723091 57.06645974 46.05031893 59.03353621 46 61 C44.45498549 62.54501451 43.0133978 62.12719131 40.86328125 62.12939453 C39.54686646 62.13412277 39.54686646 62.13412277 38.20385742 62.13894653 C37.24970947 62.1369223 36.29556152 62.13489807 35.3125 62.1328125 C33.85324097 62.13424759 33.85324097 62.13424759 32.36450195 62.13571167 C30.303222 62.13639358 28.24193992 62.13453853 26.18066406 62.13037109 C23.01362312 62.125023 19.846724 62.13031572 16.6796875 62.13671875 C14.68229135 62.13605797 12.68489529 62.13477681 10.6875 62.1328125 C9.73335205 62.13483673 8.7792041 62.13686096 7.79614258 62.13894653 C6.91853271 62.13579437 6.04092285 62.13264221 5.13671875 62.12939453 C4.36030029 62.12859894 3.58388184 62.12780334 2.78393555 62.12698364 C1 62 1 62 0 61 C-0.09391296 59.09756238 -0.11743658 57.19161541 -0.11352539 55.28686523 C-0.11344986 54.0656749 -0.11337433 52.84448456 -0.11329651 51.58628845 C-0.10818911 50.24372314 -0.10297311 48.90115825 -0.09765625 47.55859375 C-0.09579199 46.19238842 -0.09436813 44.82618243 -0.09336853 43.4599762 C-0.08954394 39.85798305 -0.07971417 36.25603 -0.06866455 32.65405273 C-0.05844916 28.98096265 -0.05381594 25.30786592 -0.04882812 21.63476562 C-0.03862203 14.42314163 -0.01905038 7.21162785 0 0 Z M1 1 C1 20.47 1 39.94 1 60 C15.52 60 30.04 60 45 60 C45 55.05 45 50.1 45 45 C37.74 45 30.48 45 23 45 C23 42.36 23 39.72 23 37 C29.6 37 36.2 37 43 37 C43 32.71 43 28.42 43 24 C37.06 23.67 31.12 23.34 25 23 C24.67 21.68 24.34 20.36 24 19 C25.51421001 17.48578999 26.92472768 17.78690144 29.03515625 17.68359375 C29.84404297 17.64169922 30.65292969 17.59980469 31.48632812 17.55664062 C32.33646484 17.51732422 33.18660156 17.47800781 34.0625 17.4375 C34.91650391 17.39431641 35.77050781 17.35113281 36.65039062 17.30664062 C38.76672037 17.20023298 40.88333813 17.09958269 43 17 C43 11.72 43 6.44 43 1 C29.14 1 15.28 1 1 1 Z " fill="#7A8084" transform="translate(805,80)"/>
<path d="M0 0 C14.85 0 29.7 0 45 0 C45 5.61 45 11.22 45 17 C44.67 17 44.34 17 44 17 C44 11.72 44 6.44 44 1 C29.81 1 15.62 1 1 1 C1 20.47 1 39.94 1 60 C15.19 60 29.38 60 44 60 C44 55.05 44 50.1 44 45 C37.4 45 30.8 45 24 45 C24 44.67 24 44.34 24 44 C31.26 44 38.52 44 46 44 C46.020625 46.784375 46.04125 49.56875 46.0625 52.4375 C46.071604 53.31591553 46.08070801 54.19433105 46.09008789 55.09936523 C46.09723091 57.06645974 46.05031893 59.03353621 46 61 C45 62 45 62 43.17137146 62.12025452 C42.37417191 62.11803391 41.57697235 62.11581329 40.75561523 62.11352539 C39.84211304 62.11340454 38.92861084 62.11328369 37.98742676 62.11315918 C37.02091187 62.10804321 36.05439697 62.10292725 35.05859375 62.09765625 C34.17498169 62.09664917 33.29136963 62.09564209 32.38098145 62.09460449 C29.06647451 62.08935531 25.75198601 62.07539417 22.4375 62.0625 C15.033125 62.041875 7.62875 62.02125 0 62 C0 41.54 0 21.08 0 0 Z " fill="#8A9296" transform="translate(533,80)"/>
<path d="M0 0 C0.33 0 0.66 0 1 0 C1 18.48 1 36.96 1 56 C15.19 56 29.38 56 44 56 C44 51.05 44 46.1 44 41 C37.07 41 30.14 41 23 41 C23 38.69 23 36.38 23 34 C23.33 34 23.66 34 24 34 C24 35.98 24 37.96 24 40 C31.26 40 38.52 40 46 40 C46.020625 42.784375 46.04125 45.56875 46.0625 48.4375 C46.071604 49.31591553 46.08070801 50.19433105 46.09008789 51.09936523 C46.09723091 53.06645974 46.05031893 55.03353621 46 57 C45 58 45 58 43.17137146 58.12025452 C42.37417191 58.11803391 41.57697235 58.11581329 40.75561523 58.11352539 C39.84211304 58.11340454 38.92861084 58.11328369 37.98742676 58.11315918 C37.02091187 58.10804321 36.05439697 58.10292725 35.05859375 58.09765625 C34.17498169 58.09664917 33.29136963 58.09564209 32.38098145 58.09460449 C29.06647451 58.08935531 25.75198601 58.07539417 22.4375 58.0625 C15.033125 58.041875 7.62875 58.02125 0 58 C0 38.86 0 19.72 0 0 Z " fill="#7B8389" transform="translate(202,84)"/>
<path d="M0 0 C1.55950551 1.55950551 1.28196698 3.08877131 1.375 5.25 C1.33379039 8.95886458 1.16049929 9.78905808 -1.1875 12.875 C-7.97058824 18 -7.97058824 18 -13 18 C-13 13.05 -13 8.1 -13 3 C-12.34 3 -11.68 3 -11 3 C-11 2.34 -11 1.68 -11 1 C-7.32307787 -0.17661508 -3.8361222 -0.14475933 0 0 Z " fill="#060607" transform="translate(897,94)"/>
<path d="M0 0 C8.25 0 16.5 0 25 0 C25.02255473 7.9361421 25.04091723 15.87225946 25.05181217 23.80842495 C25.05704008 27.49314498 25.06413605 31.17784203 25.07543945 34.86254883 C25.08627162 38.41570831 25.09227753 41.96884563 25.09487724 45.52202034 C25.0967309 46.88045666 25.10035038 48.23889171 25.10573006 49.59731865 C25.11294475 51.49382223 25.11340809 53.39034793 25.11352539 55.28686523 C25.115746 56.36830307 25.11796661 57.44974091 25.12025452 58.56394958 C25 61 25 61 24 62 C22.30441274 62.09932153 20.60474253 62.13080007 18.90625 62.1328125 C17.87628906 62.13410156 16.84632813 62.13539063 15.78515625 62.13671875 C14.15900391 62.13091797 14.15900391 62.13091797 12.5 62.125 C11.41589844 62.12886719 10.33179688 62.13273437 9.21484375 62.13671875 C8.18488281 62.13542969 7.15492188 62.13414062 6.09375 62.1328125 C5.14177734 62.13168457 4.18980469 62.13055664 3.20898438 62.12939453 C1 62 1 62 0 61 C-0.09391296 59.09756238 -0.11743658 57.19161541 -0.11352539 55.28686523 C-0.11344986 54.0656749 -0.11337433 52.84448456 -0.11329651 51.58628845 C-0.10818911 50.24372314 -0.10297311 48.90115825 -0.09765625 47.55859375 C-0.09579199 46.19238842 -0.09436813 44.82618243 -0.09336853 43.4599762 C-0.08954394 39.85798305 -0.07971417 36.25603 -0.06866455 32.65405273 C-0.05844916 28.98096255 -0.05387064 25.30786591 -0.04882812 21.63476562 C-0.03809184 14.42315666 -0.02049553 7.21158905 0 0 Z M1 1 C0.9753 8.7596005 0.95713997 16.51917815 0.94506836 24.27880859 C0.94003643 26.91911213 0.93321029 29.55941287 0.92456055 32.19970703 C0.91244521 35.99252002 0.9067603 39.7852962 0.90234375 43.578125 C0.89718246 44.76053772 0.89202118 45.94295044 0.88670349 47.16119385 C0.88662796 48.26203308 0.88655243 49.36287231 0.88647461 50.49707031 C0.884254 51.46525696 0.88203339 52.4334436 0.87974548 53.43096924 C0.92817081 56.27059017 0.92817081 56.27059017 2 60 C9.26 60 16.52 60 24 60 C24 40.53 24 21.06 24 1 C16.41 1 8.82 1 1 1 Z " fill="#6D7378" transform="translate(721,80)"/>
<path d="M0 0 C7.59 0 15.18 0 23 0 C23 0.33 23 0.66 23 1 C15.74 1 8.48 1 1 1 C1 20.47 1 39.94 1 60 C8.26 60 15.52 60 23 60 C23 55.05 23 50.1 23 45 C23.66 45 24.32 45 25 45 C25.02684679 47.64590014 25.04676357 50.29153096 25.0625 52.9375 C25.07087891 53.69224609 25.07925781 54.44699219 25.08789062 55.22460938 C25.09652441 57.14994313 25.05224333 59.07535581 25 61 C24.67 61.33 24.34 61.66 24 62 C16.08 62 8.16 62 0 62 C0 41.54 0 21.08 0 0 Z " fill="#8E959A" transform="translate(860,80)"/>
<path d="M0 0 C0.90105469 0.01804687 1.80210937 0.03609375 2.73046875 0.0546875 C3.41753906 0.07789062 4.10460937 0.10109375 4.8125 0.125 C5.17887589 6.47551546 5.17887589 6.47551546 3.4375 9.5625 C1.8125 11.125 1.8125 11.125 -0.1875 11.125 C-0.1875 11.785 -0.1875 12.445 -0.1875 13.125 C-1.1775 13.125 -2.1675 13.125 -3.1875 13.125 C-3.1875 13.785 -3.1875 14.445 -3.1875 15.125 C-4.8375 15.455 -6.4875 15.785 -8.1875 16.125 C-8.26825665 13.83390403 -8.32657731 11.54200733 -8.375 9.25 C-8.40980469 7.97382812 -8.44460938 6.69765625 -8.48046875 5.3828125 C-8.38378906 4.30773437 -8.28710938 3.23265625 -8.1875 2.125 C-4.87379 -0.08414 -3.8428979 -0.09981553 0 0 Z " fill="#09090A" transform="translate(493.1875,95.875)"/>
<path d="M0 0 C4.29 0 8.58 0 13 0 C13 0.66 13 1.32 13 2 C16.63 2 20.26 2 24 2 C24 7.94 24 13.88 24 20 C18.39 19.67 12.78 19.34 7 19 C7.66 20.65 8.32 22.3 9 24 C7.68 23.34 6.36 22.68 5 22 C5.33 20.68 5.66 19.36 6 18 C10.95 18 15.9 18 21 18 C21 13.05 21 8.1 21 3 C17.37 3 13.74 3 10 3 C10 2.34 10 1.68 10 1 C7.36 1 4.72 1 2 1 C2 1.66 2 2.32 2 3 C0.91332031 3.18175781 0.91332031 3.18175781 -0.1953125 3.3671875 C-5.28497573 4.24939579 -10.14883346 5.16442347 -15 7 C-15 6.34 -15 5.68 -15 5 C-14.01 5 -13.02 5 -12 5 C-12 4.34 -12 3.68 -12 3 C-9.11788698 2.03929566 -7.30149956 1.89418117 -4.3125 1.9375 C-3.10013672 1.95103516 -3.10013672 1.95103516 -1.86328125 1.96484375 C-0.94095703 1.98224609 -0.94095703 1.98224609 0 2 C0 1.34 0 0.68 0 0 Z " fill="#959B9E" transform="translate(358,78)"/>
<path d="M0 0 C0.66 0 1.32 0 2 0 C2 8.58 2 17.16 2 26 C9.59 26 17.18 26 25 26 C25 18.08 25 10.16 25 2 C25.66 1.67 26.32 1.34 27 1 C27 9.91 27 18.82 27 28 C18.42 28 9.84 28 1 28 C0.67 18.76 0.34 9.52 0 0 Z " fill="#818990" transform="translate(408,114)"/>
<path d="M0 0 C0.33 0 0.66 0 1 0 C1.02888514 3.14581423 1.04675923 6.29159469 1.0625 9.4375 C1.07087891 10.33533203 1.07925781 11.23316406 1.08789062 12.15820312 C1.09272461 13.43920898 1.09272461 13.43920898 1.09765625 14.74609375 C1.10551147 15.93223267 1.10551147 15.93223267 1.11352539 17.14233398 C1 19 1 19 0 20 C-1.99958364 20.04080783 -4.00045254 20.04254356 -6 20 C-6 20.66 -6 21.32 -6 22 C-3.69 22 -1.38 22 1 22 C1 27.28 1 32.56 1 38 C0.67 38 0.34 38 0 38 C0 33.05 0 28.1 0 23 C-6.6 23 -13.2 23 -20 23 C-20 21.35 -20 19.7 -20 18 C-13.4 18 -6.8 18 0 18 C0 12.06 0 6.12 0 0 Z " fill="#353739" transform="translate(246,80)"/>
<path d="M0 0 C0.99 0 1.98 0 3 0 C3.50806447 1.72681437 4.00610467 3.45657979 4.5 5.1875 C4.7784375 6.15042969 5.056875 7.11335938 5.34375 8.10546875 C6 11 6 11 6 16 C2.7 16 -0.6 16 -4 16 C-2.68 10.72 -1.36 5.44 0 0 Z " fill="#101112" transform="translate(289,107)"/>
<path d="M0 0 C1 2 1 2 0.125 5 C-1 8 -1 8 -2 10 C-2.66 10 -3.32 10 -4 10 C-4 10.99 -4 11.98 -4 13 C-4.66 13 -5.32 13 -6 13 C-6.33 14.65 -6.66 16.3 -7 18 C0.92 18 8.84 18 17 18 C17.33 17.01 17.66 16.02 18 15 C18 16.65 18 18.3 18 20 C8.76 20 -0.48 20 -10 20 C-9.20197185 16.8078874 -8.25768711 14.01844907 -7 11 C-6.34 11 -5.68 11 -5 11 C-4.9175 10.29875 -4.835 9.5975 -4.75 8.875 C-3.82972275 5.34727053 -2.11873023 2.93888386 0 0 Z " fill="#878E95" transform="translate(263,122)"/>
<path d="M0 0 C3.3480027 3.79440306 4.3076893 5.92306791 6 11 C-4.23 11 -14.46 11 -25 11 C-25.66 8.69 -26.32 6.38 -27 4 C-26.01 4.33 -25.02 4.66 -24 5 C-24 6.32 -24 7.64 -24 9 C-15.42 8.67 -6.84 8.34 2 8 C2 6.68 2 5.36 2 4 C1.34 4 0.68 4 0 4 C0 2.68 0 1.36 0 0 Z " fill="#969EA4" transform="translate(326,131)"/>
<path d="M0 0 C0.33 1.32 0.66 2.64 1 4 C7.6 4 14.2 4 21 4 C21 8.95 21 13.9 21 19 C14.4 19 7.8 19 1 19 C1 18.67 1 18.34 1 18 C6.94 18 12.88 18 19 18 C19 14.04 19 10.08 19 6 C17.71222656 6.01160156 16.42445313 6.02320312 15.09765625 6.03515625 C13.41927228 6.0445327 11.74088674 6.05363305 10.0625 6.0625 C8.78729492 6.07506836 8.78729492 6.07506836 7.48632812 6.08789062 C6.67744141 6.09111328 5.86855469 6.09433594 5.03515625 6.09765625 C4.2862915 6.10289307 3.53742676 6.10812988 2.76586914 6.11352539 C1 6 1 6 0 5 C-0.04063832 3.33382885 -0.042721 1.66611905 0 0 Z " fill="#C5CACE" transform="translate(225,99)"/>
<path d="M0 0 C0.99 0 1.98 0 3 0 C3.99 4.62 4.98 9.24 6 14 C2.7 14 -0.6 14 -4 14 C-3.21824485 9.15311808 -1.60155722 4.6233633 0 0 Z " fill="#181A1A" transform="translate(673,109)"/>
<path d="M0 0 C0.99 0.495 0.99 0.495 2 1 C2 1.66 2 2.32 2 3 C7.76099303 4.16989449 13.5190595 4.33204041 19.375 4.5625 C20.39722656 4.60568359 21.41945313 4.64886719 22.47265625 4.69335938 C24.98165288 4.79887792 27.49073943 4.90099213 30 5 C29.67 3.35 29.34 1.7 29 0 C29.66 0 30.32 0 31 0 C31 0.66 31 1.32 31 2 C31.66 2 32.32 2 33 2 C33.495 4.475 33.495 4.475 34 7 C29.78248718 7.04946113 25.56512832 7.08574827 21.34741211 7.10986328 C19.91281188 7.119917 18.47823211 7.13356194 17.04370117 7.15087891 C14.98090562 7.17515549 12.91838115 7.18648919 10.85546875 7.1953125 C9.61434326 7.20578613 8.37321777 7.21625977 7.09448242 7.22705078 C4 7 4 7 1 5 C0.3125 2.375 0.3125 2.375 0 0 Z " fill="#7F878F" transform="translate(892,135)"/>
<path d="M0 0 C3.52541563 1.31498629 6.64327136 2.84627321 9.8125 4.875 C10.60269531 5.36742188 11.39289063 5.85984375 12.20703125 6.3671875 C12.79871094 6.90601562 13.39039063 7.44484375 14 8 C14 9.32 14 10.64 14 12 C11.81278471 12.05460454 9.62516369 12.0930633 7.4375 12.125 C5.61025391 12.15980469 5.61025391 12.15980469 3.74609375 12.1953125 C0 12 0 12 -7 10 C-6.67 15.61 -6.34 21.22 -6 27 C-6.66 27 -7.32 27 -8 27 C-8 20.73 -8 14.46 -8 8 C-5.03 8.33 -2.06 8.66 1 9 C1 9.66 1 10.32 1 11 C4.63 11 8.26 11 12 11 C12 10.34 12 9.68 12 9 C11.34 9 10.68 9 10 9 C9.67 8.34 9.34 7.68 9 7 C6.69034152 5.94647157 4.3570226 4.94280904 2 4 C2 3.34 2 2.68 2 2 C1.34 2 0.68 2 0 2 C0 1.34 0 0.68 0 0 Z " fill="#666B6F" transform="translate(345,113)"/>
<path d="M0 0 C7.59 0 15.18 0 23 0 C22.67 1.32 22.34 2.64 22 4 C21.87625 4.70125 21.7525 5.4025 21.625 6.125 C21 8 21 8 18 10 C16.80767387 12.05003955 16.80767387 12.05003955 16 14 C16 12.02 16 10.04 16 8 C16.66 8 17.32 8 18 8 C18 7.01 18 6.02 18 5 C18.66 5 19.32 5 20 5 C20 4.01 20 3.02 20 2 C17.64558284 2.14241648 15.29152516 2.28884808 12.9375 2.4375 C11.62652344 2.51871094 10.31554687 2.59992188 8.96484375 2.68359375 C5.26336762 2.97898249 1.66629552 3.43265388 -2 4 C-1.34 2.68 -0.68 1.36 0 0 Z " fill="#A3ABAF" transform="translate(430,80)"/>
<path d="M0 0 C2.31 0.33 4.62 0.66 7 1 C4 2 4 2 1 1 C1.33 5.95 1.66 10.9 2 16 C6.0386476 16.67310793 9.58627481 17.15788721 13.6171875 17.31640625 C14.63554687 17.35830078 15.65390625 17.40019531 16.703125 17.44335938 C17.74984375 17.48267578 18.7965625 17.52199219 19.875 17.5625 C20.94492187 17.60568359 22.01484375 17.64886719 23.1171875 17.69335938 C25.74467754 17.79892817 28.37225422 17.90103791 31 18 C31 18.33 31 18.66 31 19 C25.23984178 20.29090133 19.66399906 20.00258269 13.8125 19.75 C12.81541016 19.72292969 11.81832031 19.69585937 10.79101562 19.66796875 C9.83517578 19.62800781 8.87933594 19.58804688 7.89453125 19.546875 C6.59286011 19.49805176 6.59286011 19.49805176 5.26489258 19.44824219 C2.53603839 18.90817791 1.60496804 18.25425938 0 16 C-0.21714241 13.18872957 -0.28284276 10.6116655 -0.1875 7.8125 C-0.17396484 7.06291016 -0.16042969 6.31332031 -0.14648438 5.54101562 C-0.11118539 3.69370233 -0.05737917 1.84675934 0 0 Z " fill="#B7BEC1" transform="translate(338,123)"/>
<path d="M0 0 C0.99 0.495 0.99 0.495 2 1 C2 1.99 2 2.98 2 4 C11.57 4.33 21.14 4.66 31 5 C31 4.34 31 3.68 31 3 C31.66 3 32.32 3 33 3 C33 4.32 33 5.64 33 7 C23.1 7 13.2 7 3 7 C3 6.34 3 5.68 3 5 C2.34 5 1.68 5 1 5 C0.67 3.35 0.34 1.7 0 0 Z " fill="#7F878E" transform="translate(492,135)"/>
<path d="M0 0 C0.33 1.32 0.66 2.64 1 4 C0.01 4.33 -0.98 4.66 -2 5 C-2 6.32 -2 7.64 -2 9 C5.92 9 13.84 9 22 9 C22.33 7.68 22.66 6.36 23 5 C23 6.65 23 8.3 23 10 C20.33821779 11.3308911 18.31260604 11.11268993 15.3359375 11.09765625 C14.21445312 11.09443359 13.09296875 11.09121094 11.9375 11.08789062 C10.761875 11.07951172 9.58625 11.07113281 8.375 11.0625 C7.19164062 11.05798828 6.00828125 11.05347656 4.7890625 11.04882812 C1.85932493 11.03701467 -1.07031272 11.02054258 -4 11 C-3.74438677 8.6568787 -3.40729228 6.32156597 -3 4 C-2.34 3.67 -1.68 3.34 -1 3 C-0.67 2.01 -0.34 1.02 0 0 Z " fill="#BBC3C8" transform="translate(642,130)"/>
<path d="M0 0 C0.33 0 0.66 0 1 0 C0.49202991 4.3177458 -0.19682779 8.03302114 -2 12 C1.3 12 4.6 12 8 12 C7.67 9.69 7.34 7.38 7 5 C7.33 6.32 7.66 7.64 8 9 C8.66 9 9.32 9 10 9 C10 10.65 10 12.3 10 14 C5.38 14 0.76 14 -4 14 C-3.46148032 8.72250715 -2.22656164 4.74354436 0 0 Z " fill="#959BA1" transform="translate(671,111)"/>
<path d="M0 0 C0.66 0.33 1.32 0.66 2 1 C-1.00574773 4.48033948 -4.19484088 5.85207525 -8.77075195 6.22705078 C-9.75003662 6.21657715 -10.72932129 6.20610352 -11.73828125 6.1953125 C-13.33833008 6.18564453 -13.33833008 6.18564453 -14.97070312 6.17578125 C-16.62489258 6.15064453 -16.62489258 6.15064453 -18.3125 6.125 C-19.43462891 6.11597656 -20.55675781 6.10695312 -21.71289062 6.09765625 C-24.47547909 6.07414486 -27.23762932 6.04128155 -30 6 C-30 5.34 -30 4.68 -30 4 C-28.91203125 4.03480469 -27.8240625 4.06960937 -26.703125 4.10546875 C-17.74943195 4.3025562 -9.56264782 4.03785116 -1 1 C-0.67 0.67 -0.34 0.34 0 0 Z " fill="#42484C" transform="translate(376,138)"/>
<path d="M0 0 C7.92 0 15.84 0 24 0 C24 0.66 24 1.32 24 2 C20.56255588 2.16783262 17.12503622 2.33406544 13.6875 2.5 C12.71103516 2.54769531 11.73457031 2.59539062 10.72851562 2.64453125 C9.32182617 2.71220703 9.32182617 2.71220703 7.88671875 2.78125 C7.02264404 2.82314453 6.15856934 2.86503906 5.26831055 2.90820312 C3.51337696 2.97922401 1.75637008 3 0 3 C0 2.01 0 1.02 0 0 Z " fill="#E2E8EB" transform="translate(393,81)"/>
<path d="M0 0 C0.33 0.99 0.66 1.98 1 3 C1.66 3 2.32 3 3 3 C3 5.64 3 8.28 3 11 C-1.29 11 -5.58 11 -10 11 C-10 9.35 -10 7.7 -10 6 C-9.34 5.67 -8.68 5.34 -8 5 C-8.33 6.32 -8.66 7.64 -9 9 C-5.7 9 -2.4 9 1 9 C0.67 6.03 0.34 3.06 0 0 Z " fill="#9EA5AA" transform="translate(294,114)"/>
<path d="M0 0 C0.6875 1.6875 0.6875 1.6875 1 4 C-0.3125 6.75 -0.3125 6.75 -2 9 C-2.66 9 -3.32 9 -4 9 C-4 11.31 -4 13.62 -4 16 C-4.66 16.33 -5.32 16.66 -6 17 C-6.309375 17.99 -6.61875 18.98 -6.9375 20 C-7.288125 20.99 -7.63875 21.98 -8 23 C-8.99 23.33 -9.98 23.66 -11 24 C-10.67 22.35 -10.34 20.7 -10 19 C-9.34 19 -8.68 19 -8 19 C-7.87625 18.484375 -7.7525 17.96875 -7.625 17.4375 C-6.81358372 14.27297649 -5.9054087 11.13875015 -5 8 C-4.34 8 -3.68 8 -3 8 C-2.67 6.35 -2.34 4.7 -2 3 C-1.34 3 -0.68 3 0 3 C0 2.01 0 1.02 0 0 Z " fill="#B9C1C6" transform="translate(654,106)"/>
<path d="M0 0 C3.1108633 4.66629496 3.12311555 8.79648451 3.0625 14.3125 C3.05347656 15.38113281 3.04445313 16.44976562 3.03515625 17.55078125 C3.02355469 18.35902344 3.01195312 19.16726562 3 20 C2.34 20 1.68 20 1 20 C0.67 21.32 0.34 22.64 0 24 C-1 22 -1 22 -0.56640625 19.92578125 C0.19524353 15.9914662 0.10604334 12.18343892 0.0625 8.1875 C0.05798828 7.39923828 0.05347656 6.61097656 0.04882812 5.79882812 C0.03711312 3.86585239 0.01917998 1.93291607 0 0 Z " fill="#B4BABE" transform="translate(918,89)"/>
<path d="M0 0 C0.33 0.66 0.66 1.32 1 2 C-1.97 2 -4.94 2 -8 2 C-8 2.66 -8 3.32 -8 4 C-9.32 4 -10.64 4 -12 4 C-12 8.62 -12 13.24 -12 18 C-12.33 18 -12.66 18 -13 18 C-13 13.05 -13 8.1 -13 3 C-12.34 3 -11.68 3 -11 3 C-11 2.34 -11 1.68 -11 1 C-7.32589215 -0.17571451 -3.83070817 -0.07366746 0 0 Z " fill="#717578" transform="translate(897,94)"/>
<path d="M0 0 C0.33 0.66 0.66 1.32 1 2 C0.34 2 -0.32 2 -1 2 C-1.33 4.97 -1.66 7.94 -2 11 C-2.66 11 -3.32 11 -4 11 C-3.67 14.63 -3.34 18.26 -3 22 C-2.34 22 -1.68 22 -1 22 C-1.33 22.66 -1.66 23.32 -2 24 C-4 23 -4 23 -4.62109375 21.328125 C-5.09148053 18.43791344 -5.0943182 15.67727465 -5.0625 12.75 C-5.04896484 11.13351563 -5.04896484 11.13351563 -5.03515625 9.484375 C-5.02355469 8.66453125 -5.01195312 7.8446875 -5 7 C-4.34 7 -3.68 7 -3 7 C-2.87625 6.030625 -2.7525 5.06125 -2.625 4.0625 C-2.41875 3.051875 -2.2125 2.04125 -2 1 C-1.34 0.67 -0.68 0.34 0 0 Z " fill="#81878B" transform="translate(342,85)"/>
<path d="M0 0 C0.99 0 1.98 0 3 0 C3 0.66 3 1.32 3 2 C2.34 2 1.68 2 1 2 C1 2.99 1 3.98 1 5 C-6.92 5 -14.84 5 -23 5 C-22.67 4.01 -22.34 3.02 -22 2 C-22 2.66 -22 3.32 -22 4 C-15.4 4 -8.8 4 -2 4 C-1.34 2.68 -0.68 1.36 0 0 Z " fill="#E6ECEF" transform="translate(279,135)"/>
<path d="M0 0 C0.33 0 0.66 0 1 0 C1.29341888 5.67276511 1.00559652 8.99067246 -2 14 C-3.32 14 -4.64 14 -6 14 C-6 14.66 -6 15.32 -6 16 C-8.31 16.33 -10.62 16.66 -13 17 C-10 15 -10 15 -8 15 C-8 14.34 -8 13.68 -8 13 C-7.01 13 -6.02 13 -5 13 C-5 12.34 -5 11.68 -5 11 C-4.34 11 -3.68 11 -3 11 C-0.87953208 7.46588679 -0.46800711 4.05606165 0 0 Z " fill="#999EA1" transform="translate(498,96)"/>
<path d="M0 0 C0.99 0.33 1.98 0.66 3 1 C3.66 2.65 4.32 4.3 5 6 C-3.91 6 -12.82 6 -22 6 C-22 5.67 -22 5.34 -22 5 C-14.08 5 -6.16 5 2 5 C2 4.01 2 3.02 2 2 C1.34 2 0.68 2 0 2 C0 1.34 0 0.68 0 0 Z " fill="#E0E7E9" transform="translate(518,134)"/>
<path d="M0 0 C0.99 0 1.98 0 3 0 C3.33 2.31 3.66 4.62 4 7 C3.34 6.67 2.68 6.34 2 6 C1.67 6.66 1.34 7.32 1 8 C0.34 8 -0.32 8 -1 8 C-1 8.99 -1 9.98 -1 11 C-1.66 10.67 -2.32 10.34 -3 10 C-2.01 6.7 -1.02 3.4 0 0 Z " fill="#6B6F70" transform="translate(289,107)"/>
<path d="M0 0 C0.33 0.66 0.66 1.32 1 2 C-0.21484375 4.8203125 -0.21484375 4.8203125 -1.9375 8.125 C-2.50339844 9.22070312 -3.06929688 10.31640625 -3.65234375 11.4453125 C-4.09707031 12.28835937 -4.54179687 13.13140625 -5 14 C-5.66 14 -6.32 14 -7 14 C-6.34 11.36 -5.68 8.72 -5 6 C-4.01 6 -3.02 6 -2 6 C-1.855625 5.195625 -1.71125 4.39125 -1.5625 3.5625 C-1 1 -1 1 0 0 Z " fill="#B3BABD" transform="translate(271,108)"/>
<path d="M0 0 C0.33 0.66 0.66 1.32 1 2 C1.66 2 2.32 2 3 2 C4.06775224 3.96466413 5.06553465 5.96855359 6 8 C5.67 8.66 5.34 9.32 5 10 C4.71125 9.360625 4.4225 8.72125 4.125 8.0625 C3.17176549 5.84793921 3.17176549 5.84793921 1 5 C1 8.63 1 12.26 1 16 C0.67 16 0.34 16 0 16 C0 10.72 0 5.44 0 0 Z " fill="#383A3C" transform="translate(485,125)"/>
<path d="M0 0 C1.5 1.375 1.5 1.375 3 3 C3 3.66 3 4.32 3 5 C3.66 5 4.32 5 5 5 C5 5.99 5 6.98 5 8 C5.66 8 6.32 8 7 8 C6.67 9.32 6.34 10.64 6 12 C5.01 11.67 4.02 11.34 3 11 C2.05078125 8.49609375 2.05078125 8.49609375 1.3125 5.4375 C1.06113281 4.42558594 0.80976563 3.41367188 0.55078125 2.37109375 C0.36902344 1.58863281 0.18726563 0.80617188 0 0 Z " fill="#9BA2A5" transform="translate(300,85)"/>
<path d="M0 0 C0.99 0 1.98 0 3 0 C3 0.99 3 1.98 3 3 C3.66 3 4.32 3 5 3 C5 3.66 5 4.32 5 5 C5.99 5.33 6.98 5.66 8 6 C7.67 7.32 7.34 8.64 7 10 C6.67 9.01 6.34 8.02 6 7 C5.01 6.67 4.02 6.34 3 6 C2.3125 3.9375 2.3125 3.9375 2 2 C1.34 2 0.68 2 0 2 C0 1.34 0 0.68 0 0 Z " fill="#565C60" transform="translate(515,128)"/>
<path d="M0 0 C4.11336093 1.45177445 7.50833145 3.38124858 11 6 C11.33 6.99 11.66 7.98 12 9 C11.34 9 10.68 9 10 9 C9.67 8.34 9.34 7.68 9 7 C6.69034152 5.94647157 4.3570226 4.94280904 2 4 C2 3.34 2 2.68 2 2 C1.34 2 0.68 2 0 2 C0 1.34 0 0.68 0 0 Z " fill="#474B4F" transform="translate(345,113)"/>
<path d="M0 0 C0.6875 1.6875 0.6875 1.6875 1 4 C-0.3125 6.75 -0.3125 6.75 -2 9 C-2.66 9 -3.32 9 -4 9 C-4.33 9.99 -4.66 10.98 -5 12 C-5 10.68 -5 9.36 -5 8 C-4.34 8 -3.68 8 -3 8 C-2.67 6.35 -2.34 4.7 -2 3 C-1.34 3 -0.68 3 0 3 C0 2.01 0 1.02 0 0 Z " fill="#6B7276" transform="translate(654,106)"/>
<path d="M0 0 C-0.33 1.32 -0.66 2.64 -1 4 C-3.64 4.66 -6.28 5.32 -9 6 C-6.78104821 2.67157231 -4.2307106 0 0 0 Z " fill="#9BA3A5" transform="translate(897,106)"/>
<path d="M0 0 C0.33 1.32 0.66 2.64 1 4 C0.01 4.66 -0.98 5.32 -2 6 C-3.19232613 8.05003955 -3.19232613 8.05003955 -4 10 C-4 8.02 -4 6.04 -4 4 C-3.34 4 -2.68 4 -2 4 C-2 3.01 -2 2.02 -2 1 C-1.34 0.67 -0.68 0.34 0 0 Z " fill="#B0B8BC" transform="translate(450,84)"/>
<path d="M0 0 C0.99 0.33 1.98 0.66 3 1 C1.68 3.31 0.36 5.62 -1 8 C-2 6 -2 6 -1.0625 2.875 C-0.5365625 1.451875 -0.5365625 1.451875 0 0 Z " fill="#C2CACD" transform="translate(440,100)"/>
</svg>
